<?xml version="1.0" encoding="UTF-8"?>
<!-- Generator: visioncortex VTracer 0.6.12 -->
<svg version="1.1" xmlns="http://www.w3.org/2000/svg" width="512" height="512">
<path d="M0 0 C168.96 0 337.92 0 512 0 C512 168.96 512 337.92 512 512 C343.04 512 174.08 512 0 512 C0 343.04 0 174.08 0 0 Z " fill="#4D6FA9" transform="translate(0,0)"/>
<path d="M0 0 C0.908 -0 1.816 -0 2.752 -0 C5.733 0 8.714 0.008 11.696 0.016 C13.771 0.018 15.846 0.019 17.921 0.02 C23.367 0.024 28.814 0.034 34.26 0.045 C40.803 0.057 47.346 0.061 53.889 0.067 C63.815 0.077 73.742 0.096 83.668 0.114 C83.668 29.484 83.668 58.854 83.668 89.114 C41.043 89.364 41.043 89.364 27.603 89.411 C22.171 89.457 22.171 89.457 19.625 89.483 C17.854 89.498 16.083 89.504 14.311 89.505 C11.622 89.507 8.933 89.535 6.244 89.568 C5.852 89.565 5.852 89.565 3.868 89.552 C-2.527 89.674 -6.178 91.896 -10.669 96.52 C-13.25 102.097 -12.936 107.531 -12.941 113.606 C-12.949 114.183 -12.949 114.183 -12.989 117.102 C-13.041 121.397 -13.059 125.693 -13.082 129.989 C-13.164 139.6 -13.247 149.211 -13.332 159.114 C15.708 159.114 44.748 159.114 74.668 159.114 C74.668 188.484 74.668 217.854 74.668 248.114 C45.628 248.114 16.588 248.114 -13.332 248.114 C-13.332 306.194 -13.332 364.274 -13.332 424.114 C-42.702 424.114 -72.072 424.114 -102.332 424.114 C-102.332 366.034 -102.332 307.954 -102.332 248.114 C-125.432 248.114 -148.532 248.114 -172.332 248.114 C-172.332 218.744 -172.332 189.374 -172.332 159.114 C-149.232 159.114 -126.132 159.114 -102.332 159.114 C-102.457 127.864 -102.457 127.864 -102.512 118.07 C-102.518 115.475 -102.523 112.88 -102.527 110.285 C-102.532 109.628 -102.538 108.971 -102.543 108.294 C-102.632 96.53 -101.537 85.522 -97.707 74.364 C-97.447 73.604 -97.188 72.845 -96.921 72.062 C-87.286 44.809 -68.23 22.404 -42.019 9.801 C-28.583 3.604 -14.836 -0.063 0 0 Z " fill="#FDFDFE" transform="translate(349.331787109375,87.886474609375)"/>
<path d="M0 0 C0.33 0 0.66 0 1 0 C1 8.91 1 17.82 1 27 C-7.91 27 -16.82 27 -26 27 C-23.395 25.263 -20.949 24.005 -18.125 22.688 C-13.975 20.63 -11.033 18.568 -8 15 C-7.319 14.278 -6.639 13.556 -5.938 12.812 C-3.198 8.836 -1.649 4.518 0 0 Z " fill="#FFFFFF" transform="translate(511,485)"/>
<path d="M0 0 C1.737 2.605 2.995 5.051 4.312 7.875 C6.37 12.025 8.432 14.967 12 18 C12.722 18.681 13.444 19.361 14.188 20.062 C18.164 22.802 22.482 24.351 27 26 C27 26.33 27 26.66 27 27 C18.09 27 9.18 27 0 27 C0 18.09 0 9.18 0 0 Z " fill="#FFFFFF" transform="translate(0,485)"/>
<path d="M0 0 C8.91 0 17.82 0 27 0 C27 8.91 27 17.82 27 27 C25.263 24.395 24.005 21.949 22.688 19.125 C20.63 14.975 18.568 12.033 15 9 C14.278 8.319 13.556 7.639 12.812 6.938 C8.836 4.198 4.518 2.649 0 1 C0 0.67 0 0.34 0 0 Z " fill="#FFFFFF" transform="translate(485,0)"/>
<path d="M0 0 C8.91 0 17.82 0 27 0 C24.395 1.737 21.949 2.995 19.125 4.312 C14.975 6.37 12.033 8.432 9 12 C8.319 12.722 7.639 13.444 6.938 14.188 C4.198 18.164 2.649 22.482 1 27 C0.67 27 0.34 27 0 27 C0 18.09 0 9.18 0 0 Z " fill="#FFFFFF" transform="translate(0,0)"/>
</svg>
